<svg xmlns="http://www.w3.org/2000/svg" xmlns:xlink="http://www.w3.org/1999/xlink" version="1.1" x="0px" y="0px" viewBox="0 0 60 75" style="enable-background:new 0 0 60 60;" xml:space="preserve"><path d="M48.09,12.49c-1.76-0.71-4-0.47-4.66-0.38c-1.38,0.2-2.42,1.43-2.42,2.87c0,1.48,1.1,2.74,2.52,2.87  c0.09,0.01,0.17,0.02,0.28,0.04c1.11,0.17,2.3,1.31,2.24,2.57c-0.17,3.23-2.19,4.92-3.07,5.5c-1.3-0.62-2.72-0.94-4.15-0.94  L29.07,25c-4.26-0.7-5.22-5.75-5.44-7.9c-0.15-1.43-0.77-2.69-1.67-3.55c-0.31-4.53-3.32-6.34-3.47-6.42  c-0.26-0.15-0.58-0.18-0.86-0.07c-0.28,0.11-0.5,0.34-0.59,0.62l-1.58,4.81c-1.65,0.63-3.08,1.84-4.06,3.46l-0.48,0.77l-3.16,0.88  c-1.28,0.36-2.04,1.72-1.69,3.03l0.77,2.93c0.25,0.98,0.96,1.77,1.9,2.12l3.72,1.35c0.73,0.26,1.25,0.95,1.34,1.79  c0.29,2.4,1.15,6.58,1.93,8.74c0.2,0.56,0.29,1.11,0.26,1.59L15.1,47h-0.45c-1.46,0-2.66,1.19-2.66,2.66v1.32  c0,0.54,0.21,1.06,0.6,1.44c0.38,0.38,0.9,0.59,1.44,0.59c0,0,0,0,0,0L18.99,53c0.4,0,0.76-0.24,0.92-0.6l3.84-8.85  c0.73,0.23,1.9,0.5,3.4,0.5c1.55,0,3.45-0.29,5.59-1.19c0.07-0.03,0.15-0.08,0.22-0.13c0.07-0.05,1.63-1.15,4.16-0.47  c0.69,1.32,1.51,2.53,1.88,3.06v1.69c-1.68,0.14-3,1.55-3,3.27v0.69c0,0.54,0.21,1.06,0.6,1.44c0.38,0.38,0.9,0.59,1.44,0.59  c0,0,0,0,0,0L43.99,53c0.43,0,0.81-0.28,0.95-0.68l3-9c0.09-0.28,0.06-0.59-0.1-0.84c-0.91-1.48-1.56-3.53-1.8-4.35  c1.43-2.95,0.96-5.64,0.43-7.21c2.12-0.26,3.83-1.11,5.11-2.53c2.88-3.2,2.41-8.1,2.39-8.22C53.88,15.38,50.12,13.07,48.09,12.49z   M50.09,27.05C48.92,28.34,47.2,29,44.99,29c-0.36,0-0.69,0.19-0.87,0.5c-0.18,0.31-0.18,0.69,0,1c0.08,0.14,1.92,3.38-0.04,7.04  c-0.12,0.22-0.15,0.48-0.09,0.72c0.03,0.12,0.73,2.75,1.9,4.84l-2.63,7.88l-5.28-0.02v-0.69c0-0.71,0.57-1.28,1.28-1.28h0.72  c0.55,0,1-0.45,1-1v-3c0-0.21-0.07-0.42-0.19-0.59c-0.02-0.02-1.09-1.51-1.92-3.09c-0.03-0.23-0.13-0.45-0.3-0.61  c-0.22-0.47-0.41-0.94-0.52-1.36c-0.09-0.35-0.09-0.72,0.01-1.07l0.88-3c0.16-0.53-0.15-1.08-0.68-1.24  c-0.53-0.15-1.08,0.15-1.24,0.68l-0.88,3.01c-0.2,0.71-0.21,1.44-0.02,2.14c0.02,0.06,0.04,0.13,0.06,0.19  c-2.31-0.2-3.88,0.7-4.32,1c-3.43,1.42-6.07,1.01-7.32,0.65l1.1-2.53c0.22-0.51-0.01-1.1-0.52-1.32c-0.51-0.22-1.1,0.01-1.32,0.52  l-5.48,12.62l-4.35-0.02v-1.32c0-0.36,0.29-0.66,0.66-0.66h1.34c0.51,0,0.94-0.38,0.99-0.89l0.99-8.75c0.06-0.8-0.07-1.63-0.37-2.46  c-0.71-1.98-1.55-6.01-1.83-8.29c-0.19-1.6-1.2-2.92-2.65-3.43l-3.7-1.35c-0.32-0.12-0.56-0.39-0.65-0.75l-0.77-2.94  c-0.07-0.26,0.07-0.53,0.29-0.59l3.54-0.99c0.24-0.07,0.45-0.23,0.58-0.44L13.11,17c0.57-0.94,1.33-1.68,2.2-2.19  c0.11,0.1,0.23,0.19,0.38,0.23c0.52,0.17,1.09-0.11,1.26-0.64l1.53-4.65c0.66,0.78,1.43,2.13,1.52,4.21c0,0.02,0,0.03,0,0.05  c0.02,0.7-0.03,1.47-0.19,2.33c-0.1,0.54,0.26,1.06,0.8,1.16c0.06,0.01,0.12,0.02,0.18,0.02c0.33,0,0.64-0.17,0.82-0.44  c0.01,0.08,0.04,0.15,0.04,0.22c0.26,2.62,1.49,8.81,7.19,9.68c0.05,0.01,0.1,0.01,0.15,0.01l9.84,0.02c1.21,0,2.42,0.3,3.52,0.86  l0.22,0.11c0.28,0.14,0.61,0.14,0.89,0c0.18-0.09,4.31-2.18,4.59-7.44c0.11-2.17-1.68-4.3-3.9-4.65c-0.14-0.03-0.3-0.05-0.46-0.06  c-0.38-0.03-0.69-0.43-0.69-0.87c0-0.45,0.3-0.83,0.7-0.89c1.05-0.14,2.64-0.16,3.67,0.27c0.04,0.02,0.08,0.03,0.12,0.04  c0.18,0.05,4.39,1.28,4.48,5.88C51.98,20.32,52.37,24.52,50.09,27.05z"/><text x="0" y="75" fill="#000000" font-size="5px" font-weight="bold" font-family="'Helvetica Neue', Helvetica, Arial-Unicode, Arial, Sans-serif">Created by Vectorstall</text><text x="0" y="80" fill="#000000" font-size="5px" font-weight="bold" font-family="'Helvetica Neue', Helvetica, Arial-Unicode, Arial, Sans-serif">from the Noun Project</text></svg>