<svg xmlns="http://www.w3.org/2000/svg" xmlns:xlink="http://www.w3.org/1999/xlink" version="1.1" x="0px" y="0px" viewBox="0 0 60 75" style="enable-background:new 0 0 60 60;" xml:space="preserve"><path d="M17.45,55h21.98h0.74c0.76,0,1.44-0.29,1.97-0.76c0.53,0.47,1.21,0.76,1.97,0.76h0.85c1.59,0,2.89-1.24,2.97-2.83  c0.09-1.97,0.32-5.28,0.89-9.81c0.83-6.63-0.44-15.46-0.84-17.99c4.16-2.66,4.38-7.26,4.39-7.46c0.01-0.15-0.02-0.3-0.08-0.44  c-1.6-3.64-4.54-5.57-5.79-6.26c-0.21-3.27-2.65-4.96-2.76-5.04c-0.36-0.25-0.85-0.23-1.19,0.05C41.16,6.33,40.34,7.71,39.85,9  c-0.98-1.57-2.16-2.64-2.24-2.71c-0.2-0.18-0.46-0.27-0.73-0.25c-0.27,0.02-0.51,0.14-0.69,0.34c-4.52,5.16-4.17,14.46-3.98,16.97  c-2.29,1.56-10.74,8.39-11.1,23.9h-3.54c-1.41,0-2.58-1.09-2.6-2.42c-0.01-0.73,0.23-1.56,0.72-2.46c0.87-1.6,0.28-3.65-1.32-4.56  c-1.5-0.86-3.4-0.47-4.43,0.91c-0.86,1.15-1.95,3.04-2.25,5.5c-0.3,2.52,0.67,5.4,2.55,7.51C12.12,53.84,14.68,55,17.45,55z   M9.68,44.46c0.24-2.02,1.15-3.59,1.86-4.54c0.42-0.57,1.21-0.73,1.83-0.37c0.65,0.37,0.9,1.23,0.56,1.87  c-0.65,1.21-0.98,2.36-0.96,3.44c0.04,2.42,2.11,4.39,4.6,4.39h4.53c0.55,0,1-0.45,1-1c0-17.1,10.55-23.46,10.66-23.52  c0.34-0.2,0.54-0.58,0.49-0.98c-0.01-0.1-1.01-9.76,2.77-15.2c0.88,1,2.02,2.64,2.11,4.24c0.03,0.54,0.49,0.99,1.04,0.94  c0.54-0.02,0.97-0.47,0.96-1.02c0-0.03-0.04-3.17,2.03-5.36c0.57,0.62,1.36,1.77,1.32,3.46c-0.01,0.41,0.23,0.78,0.6,0.94  c0.04,0.02,3.51,1.58,5.25,5.3c-0.09,0.88-0.66,4.16-3.94,5.93c-0.38,0.2-0.58,0.63-0.51,1.05c0.02,0.11,1.86,10.73,0.94,18.08  c-0.58,4.6-0.81,7.96-0.9,9.97C45.9,52.6,45.48,53,44.96,53h-0.85c-0.54,0-0.97-0.44-0.97-0.97v-1.94v-7.77c0-0.55-0.45-1-1-1  s-1,0.45-1,1v7.77v1.94c0,0.54-0.44,0.97-0.97,0.97h-0.74c-0.51,0-0.93-0.4-0.97-0.91c-0.2-3.11-0.92-4.67-1.61-6.18  c-0.88-1.91-1.78-3.89-1.78-9.63c0-0.55-0.45-1-1-1s-1,0.45-1,1c0,6.18,1.04,8.45,1.96,10.46c0.67,1.47,1.26,2.74,1.43,5.48  c0.02,0.27,0.08,0.53,0.17,0.78H17.45c-2.19,0-4.22-0.92-5.71-2.6C10.24,48.7,9.45,46.42,9.68,44.46z"/><path d="M43.94,16.24c0.13,0,0.26-0.03,0.38-0.08c0.12-0.05,0.23-0.12,0.33-0.22c0.18-0.18,0.29-0.44,0.29-0.7  c0-0.13-0.03-0.26-0.08-0.39c-0.05-0.12-0.12-0.23-0.21-0.32c-0.1-0.09-0.21-0.17-0.33-0.22c-0.37-0.15-0.81-0.06-1.09,0.22  c-0.19,0.19-0.29,0.44-0.29,0.71c0,0.26,0.1,0.52,0.29,0.7C43.42,16.13,43.67,16.24,43.94,16.24z"/><text x="0" y="75" fill="#000000" font-size="5px" font-weight="bold" font-family="'Helvetica Neue', Helvetica, Arial-Unicode, Arial, Sans-serif">Created by Vectorstall</text><text x="0" y="80" fill="#000000" font-size="5px" font-weight="bold" font-family="'Helvetica Neue', Helvetica, Arial-Unicode, Arial, Sans-serif">from the Noun Project</text></svg>