<svg xmlns="http://www.w3.org/2000/svg" viewBox="0 0 512 606.25" fill="none" x="0px" y="0px"><path fill-rule="evenodd" clip-rule="evenodd" d="M47.306 0.804856C39.656 -0.765896 31.7116 -0.0268352 24.4826 2.92809C17.2536 5.88301 11.0663 10.9204 6.70695 17.4001C2.3476 23.8798 0.0130474 31.5092 0 39.3188V247.844C0 379.931 116.313 484.152 256 484.152C395.687 484.152 512 379.931 512 247.844L512 39.3517L512 39.3188C511.987 31.5092 509.652 23.8797 505.293 17.4001C500.934 10.9204 494.746 5.88301 487.517 2.92809C480.288 -0.0268328 472.344 -0.765896 464.694 0.804856C457.073 2.36954 450.088 6.15585 444.617 11.6852L402.33 53.9725C358.794 26.0235 307.975 11.2154 256 11.5359C204.025 11.2154 153.206 26.0235 109.67 53.9725L67.3843 11.6869C61.9136 6.1566 54.9273 2.3697 47.306 0.804856ZM401.941 98.7737C402.386 98.9446 402.876 98.9514 403.325 98.7929L417.96 93.6259C418.382 93.4768 418.766 93.235 419.083 92.9183L472.51 39.4921L472.615 39.3846L472.615 247.844C472.615 349.144 387.406 434.876 275.692 443.97V374.157L309.309 340.54C316.999 332.85 316.999 320.381 309.309 312.691C301.619 305 289.15 305 281.46 312.691L256 338.151L230.54 312.691C222.85 305 210.381 305 202.691 312.691C195 320.381 195 332.85 202.691 340.54L236.308 374.157V443.97C124.594 434.876 39.3846 349.144 39.3846 247.844L39.3846 39.3846L93.3985 93.3994C100.279 100.28 111.153 101.103 118.992 95.3376C131.126 86.4117 144.043 78.7585 157.538 72.4444V149.385C157.538 160.26 166.355 169.077 177.231 169.077C188.107 169.077 196.923 160.26 196.923 149.385V63.2307C196.923 61.5668 196.717 59.9511 196.328 58.4078C209.386 54.9789 222.763 52.7032 236.308 51.6304V149.385C236.308 160.26 245.124 169.077 256 169.077C266.876 169.077 275.692 160.26 275.692 149.385V51.7818C289.163 53.0442 302.47 55.6488 315.462 59.3362C315.209 60.5951 315.077 61.8975 315.077 63.2307V149.385C315.077 160.26 323.893 169.077 334.769 169.077C345.645 169.077 354.462 160.26 354.462 149.385V73.9074C367.962 80.1657 380.881 87.4268 393.008 95.3376L401.941 98.7737ZM177.231 257.692C177.231 274.006 164.006 287.231 147.692 287.231C131.379 287.231 118.154 274.006 118.154 257.692C118.154 241.379 131.379 228.154 147.692 228.154C164.006 228.154 177.231 241.379 177.231 257.692ZM364.308 287.231C380.621 287.231 393.846 274.006 393.846 257.692C393.846 241.379 380.621 228.154 364.308 228.154C347.994 228.154 334.769 241.379 334.769 257.692C334.769 274.006 347.994 287.231 364.308 287.231Z" fill="black"/><text x="0" y="500" fill="#000000" font-size="5px" font-weight="bold" font-family="'Helvetica Neue', Helvetica, Arial-Unicode, Arial, Sans-serif">Created by Pavani TLN</text><text x="0" y="505" fill="#000000" font-size="5px" font-weight="bold" font-family="'Helvetica Neue', Helvetica, Arial-Unicode, Arial, Sans-serif">from the Noun Project</text></svg>