<svg xmlns="http://www.w3.org/2000/svg" version="1.1" viewBox="-5.0 -10.0 110.0 135.0">
 <path d="m94.652 25.254c-0.16016-1.9258-1.3945-2.875-3.3008-2.6641-3.8516 0.42969-7.6875 0.95703-11.531 1.4453-2.582 0.32812-5.1758 0.58984-7.7422 1.0156-3.0703 0.50781-5.4766-0.60938-7.6016-2.6992-3.0312-2.9766-6.6367-4.9688-10.777-5.8945-9.1758-2.0469-18.074-1.4688-26.391 3.2812-4.1914 2.3945-7.1797 5.9688-9.0938 10.398-2.8906 6.6875-3.9727 13.836-5.2188 20.938-1.3242 7.5508-2.0742 15.242-3.9414 22.652-0.99219 3.9375-2.3555 7.5742-4.0586 10.938h59.879c-1.2031-4.2461-2.2617-8.5664-2.7109-12.914-0.84766-8.25 3.8789-13.746 10.625-17.637 1.9961-1.1523 4.3086-1.8203 6.5469-2.4648 9.6719-2.793 14.871-8.9766 15.602-18.988 0.17969-2.4531-0.082031-4.9453-0.28516-7.4062zm-48.395 34.555c7.4062-12.711 4.2812-28.941-8.3906-38.359 7.6719 2.4141 13.84 11.184 14.875 20.203 0.91016 7.8789-2.0508 15.723-6.4844 18.156z"/></svg>