<svg xmlns="http://www.w3.org/2000/svg" viewBox="0 0 512 556.25" fill="none" x="0px" y="0px"><path fill-rule="evenodd" clip-rule="evenodd" d="M81.429 1.08577L81.4038 1.07946C76.6939 -0.102703 71.793 -0.316533 66.9979 0.451015C62.1943 1.21993 57.5972 2.95766 53.486 5.55858C49.3749 8.15951 45.8356 11.5693 43.0833 15.5806C40.331 19.592 38.4222 24.121 37.4748 28.8926L0.661555 225.529L0.648172 225.602C-5.55475 259.511 34.1972 280.596 58.6555 260.064V354.624C58.6555 378.414 68.1061 401.23 84.9281 418.052C101.75 434.874 124.566 444.324 148.356 444.324H255.488C255.657 444.329 255.826 444.331 255.996 444.331C256.166 444.331 256.335 444.329 256.504 444.324H363.636C387.426 444.324 410.242 434.874 427.064 418.052C443.886 401.23 453.336 378.414 453.336 354.624V260.06C477.794 280.599 517.552 259.513 511.349 225.602L474.559 29.085L474.521 28.8929C473.574 24.1212 471.666 19.592 468.914 15.5807C466.161 11.5693 462.622 8.15954 458.511 5.55864C454.4 2.95774 449.803 1.21999 444.999 0.451069C440.204 -0.316479 435.303 -0.102649 430.593 1.07951L430.568 1.08583L307.629 31.7105H204.369L81.429 1.08577ZM417.456 215.704L301.094 67.5905H210.903L94.5356 215.711V354.624C94.5356 368.898 100.206 382.587 110.299 392.681C120.392 402.774 134.082 408.444 148.356 408.444H238.056V380.002L207.43 349.377C200.424 342.371 200.424 331.012 207.43 324.006C214.436 317 225.795 317 232.801 324.006L255.996 347.2L279.191 324.006C286.197 317 297.556 317 304.562 324.006C311.568 331.012 311.568 342.371 304.562 349.377L273.936 380.002V408.444H363.636C377.91 408.444 391.599 402.774 401.693 392.681C411.786 382.587 417.456 368.898 417.456 354.624V215.704ZM35.9426 232.058L72.6701 35.8804L170.953 60.363L36.043 232.085L36.0294 232.102L36.0127 232.122L35.9916 232.113C35.9821 232.109 35.9732 232.102 35.9646 232.096C35.956 232.089 35.9476 232.082 35.939 232.078L35.9426 232.058ZM341.044 60.3631L475.95 232.079C475.96 232.093 475.975 232.11 475.984 232.122L476.005 232.113C476.024 232.104 476.042 232.096 476.06 232.087L476.054 232.058L439.327 35.8804L439.284 35.891L341.044 60.3631ZM202.176 255.961C202.176 270.823 190.128 282.871 175.266 282.871C160.404 282.871 148.356 270.823 148.356 255.961C148.356 241.099 160.404 229.051 175.266 229.051C190.128 229.051 202.176 241.099 202.176 255.961ZM336.726 282.871C351.588 282.871 363.636 270.823 363.636 255.961C363.636 241.099 351.588 229.051 336.726 229.051C321.864 229.051 309.816 241.099 309.816 255.961C309.816 270.823 321.864 282.871 336.726 282.871Z" fill="black"/><text x="0" y="460" fill="#000000" font-size="5px" font-weight="bold" font-family="'Helvetica Neue', Helvetica, Arial-Unicode, Arial, Sans-serif">Created by Pavani TLN</text><text x="0" y="465" fill="#000000" font-size="5px" font-weight="bold" font-family="'Helvetica Neue', Helvetica, Arial-Unicode, Arial, Sans-serif">from the Noun Project</text></svg>