<svg xmlns="http://www.w3.org/2000/svg" version="1.1" viewBox="-5.0 -10.0 110.0 135.0">
 <path d="m17.988 17.102c0.49219-0.19531 1.4805-0.58594 2.3281-1.1719 0.85547-0.58594 1.5703-1.3633 2.1797-1.8906 0.60547-0.52344 1.1016-0.78906 1.5781-0.99609 0.48047-0.20703 0.95312-0.34766 1.4609-0.46094 0.50391-0.11328 1.0352-0.19531 1.3555-0.37109 0.31641-0.17578 0.42188-0.44141 0.41016-0.87109-0.011719-0.43359-0.13281-1.0273-0.20312-1.6836-0.070312-0.65625-0.09375-1.375-0.039062-2.0234 0.050781-0.64453 0.17578-1.2227 0.30859-1.6328 0.13672-0.41016 0.27734-0.65625 0.57422-0.5625s0.75 0.52344 1.2812 1.1406 1.1484 1.418 1.6602 2.1641c0.51563 0.75 0.92578 1.4492 1.3047 2.0742s0.73047 1.1797 0.99609 1.5273 0.44922 0.49219 0.73047 0.58203c0.27734 0.09375 0.64453 0.13672 0.98438 0.22656 0.33984 0.09375 0.64453 0.23438 0.93359 0.41016 0.28906 0.17578 0.55469 0.37891 0.75 0.49219 0.19141 0.11328 0.31641 0.13281 0.60547-0.10547 0.28516-0.23438 0.73828-0.73047 1.3438-1.293s1.3672-1.1992 2.043-1.7266c0.67969-0.52344 1.2734-0.93359 1.8086-1.3047 0.53125-0.37109 1.0078-0.69531 1.293-0.85938 0.28906-0.16406 0.39062-0.16406 0.44141 0.33984 0.050781 0.50391 0.050781 1.5078-0.011719 3.0078-0.0625 1.4961-0.1875 3.4883-0.35156 5.0078-0.16406 1.5195-0.36719 2.5664-0.55469 3.3672s-0.35156 1.3555-0.49219 1.8594c-0.14453 0.50391-0.26562 0.95312-0.28516 1.8086-0.019531 0.85156 0.0625 2.1055 0.09375 3.4805s0.011719 2.875-0.082031 4.1055c-0.09375 1.2305-0.25781 2.1992-0.40234 3.1836s-0.26562 1.9922-0.28516 2.875c-0.019532 0.88281 0.0625 1.6445 0.1875 2.4336 0.12109 0.78906 0.28516 1.6133 0.66797 2.3906 0.37891 0.78125 0.97656 1.5195 1.8789 2.3203 0.90234 0.80078 2.1133 1.6641 3.4805 2.6797 1.3633 1.0156 2.8867 2.1875 4.4961 3.8203 1.6133 1.6328 3.3164 3.7266 4.6523 5.9336 1.3359 2.207 2.3008 4.5273 3.0195 6.7344 0.72266 2.2109 1.1914 4.3047 1.4688 6.4453 0.27734 2.1445 0.35938 4.3438 0.35156 6.3555-0.011719 2.0156-0.11328 3.8398-0.27734 5.2461s-0.39062 2.3945-0.53125 3.0273c-0.14453 0.63672-0.20703 0.92188-0.085937 1.0586 0.125 0.13281 0.43359 0.11328 1.2812-0.21484 0.85547-0.32812 2.2461-0.96484 3.5117-2.043 1.2617-1.0781 2.3906-2.5977 3.1328-4.2188 0.73828-1.6211 1.0898-3.3477 1.1602-5.1523 0.070313-1.8047-0.13281-3.6953-0.80078-6.0352-0.66797-2.3398-1.7969-5.1328-3.2148-8.0078s-3.1211-5.832-4.7617-8.6211c-1.6445-2.793-3.2227-5.4219-4.6484-8.1133-1.4297-2.6875-2.6992-5.4414-3.5703-8.2305-0.87109-2.793-1.3477-5.625-1.457-8.1523-0.11328-2.5273 0.13281-4.7422 0.66406-6.9609s1.3555-4.4375 2.4961-6.3945c1.1406-1.9609 2.5977-3.6641 4.1562-5.0195 1.5625-1.3555 3.2266-2.3633 4.8359-3.0078 1.5977-0.64453 3.1602-0.93359 4.7109-1.0352 1.5508-0.10156 3.0898-0.019531 4.7148 0.37109 1.6211 0.39062 3.3242 1.0898 4.7969 2.0547 1.4688 0.96484 2.6992 2.1953 3.6953 3.8594 0.99609 1.6641 1.7578 3.7578 2.1055 5.4336 0.35156 1.6719 0.28516 2.9258-0.019531 4.2617-0.3125 1.3359-0.86328 2.75-1.5312 3.8906s-1.4453 2.0039-2.3281 2.6992c-0.88672 0.69531-1.8672 1.2305-2.9258 1.5-1.0586 0.26562-2.1875 0.26562-3.2031 0-1.0195-0.26953-1.9219-0.80078-2.5078-1.457-0.58594-0.65625-0.85547-1.4375-0.95312-2.1641-0.10547-0.73047-0.039062-1.4062 0.30859-2.0039 0.35156-0.59766 0.98438-1.1094 1.6758-1.7266 0.6875-0.61719 1.4297-1.3359 1.7852-2.082 0.35938-0.75 0.33984-1.5312 0.17578-2.2266-0.16406-0.69922-0.47266-1.3125-1.0352-1.8359-0.5625-0.52344-1.3867-0.95703-2.3711-1.1211-0.98438-0.16406-2.1367-0.0625-3.1211 0.19531s-1.8086 0.66797-2.6406 1.375c-0.83203 0.71094-1.6719 1.7148-2.2461 2.7539-0.57422 1.0352-0.88281 2.1055-1.1406 3.6055-0.25781 1.5-0.46484 3.4297-0.22656 5.6055 0.23438 2.1758 0.91406 4.6016 1.8086 6.9102 0.89062 2.3125 2 4.5078 3.3867 6.9102 1.3867 2.4023 3.0508 5.0078 4.5273 7.3516 1.4805 2.3398 2.7695 4.418 3.9531 6.6953 1.1797 2.2812 2.2461 4.7656 3.1094 7.332 0.86328 2.5664 1.5195 5.2148 1.7266 7.875 0.20313 2.6562-0.039062 5.3281-0.32812 7.2773-0.28906 1.9492-0.61719 3.1836-1.2656 4.6289-0.64453 1.4492-1.6133 3.1094-2.5039 4.3203-0.89453 1.2109-1.7188 1.9727-2.7305 2.7695-1.0156 0.80078-2.2305 1.6445-3.5195 2.3203-1.2969 0.67969-2.6719 1.1914-4.4844 1.5703-1.8164 0.38281-4.0742 0.62891-6.6641 0.76172-2.5898 0.13281-5.5039 0.15234-8.9336 0.17578-3.4297 0.019531-7.3711 0.039063-10.113 0.050781-2.7422 0.011719-4.2812 0.011719-5.3789-0.03125-1.0977-0.039062-1.7578-0.12109-2.1758-0.37891-0.42188-0.25781-0.60547-0.6875-0.60547-1.2656 0-0.57422 0.18359-1.293 0.53125-1.8164 0.34766-0.52344 0.86328-0.85156 1.4688-1.0273 0.60547-0.17188 1.3047-0.19531 1.4609-0.625 0.15234-0.43359-0.23438-1.2734-0.42188-2.5156-0.1875-1.2422-0.16406-2.8867 0.011719-4.2188 0.17578-1.3359 0.50391-2.3633 0.92578-3.2852 0.42188-0.92578 0.9375-1.7461 1.5391-2.4648 0.60547-0.71875 1.3047-1.3359 2.0156-1.8398 0.70703-0.50391 1.4258-0.89453 2.1133-1.2109s1.3477-0.5625 1.5312-0.75781c0.18359-0.19531-0.10547-0.33984-0.8125-0.22656s-1.8398 0.48047-2.7305 0.80078c-0.89453 0.31641-1.5508 0.58594-2.3945 1.1719-0.83984 0.58594-1.8672 1.4883-2.6797 2.5781-0.8125 1.0898-1.4062 2.3594-1.7266 3.3906-0.31641 1.0273-0.35938 1.8086-0.36719 2.4766-0.011719 0.66797 0.011719 1.2227 0.0625 1.6719 0.050781 0.45312 0.13281 0.80078 0.10156 1.1406-0.03125 0.33984-0.17578 0.66797-0.44922 1.0352s-0.6875 0.77734-1.1055 1.3516c-0.42188 0.57422-0.85547 1.3125-1.2227 2.0938-0.37109 0.78125-0.67969 1.6016-0.90234 2.2305-0.22656 0.625-0.37109 1.0586-0.92578 1.3242s-1.5195 0.36719-2.8047 0.41016c-1.2812 0.039063-2.8867 0.019531-3.9727-0.0625-1.0898-0.082031-1.6641-0.22656-1.9805-0.76953-0.31641-0.54688-0.37891-1.4883-0.070312-2.1953 0.30859-0.71094 0.98438-1.1836 1.6445-1.5 0.65625-0.31641 1.2969-0.48047 1.7461-0.85156 0.45312-0.37109 0.71875-0.94141 0.94141-1.6836 0.23047-0.73828 0.41016-1.6406 0.54688-3.5508 0.13281-1.9102 0.21484-4.8242 0.19531-7.3281s-0.14453-4.6016-0.22656-6.0078c-0.082031-1.4062-0.12109-2.125-0.51562-3.0703-0.39062-0.94531-1.1328-2.1172-1.8164-3.1914-0.6875-1.0781-1.3242-2.0625-2.1641-3.7461-0.84375-1.6836-1.8906-4.0625-2.4531-6.6094s-0.64453-5.2578-0.39844-7.6914c0.24609-2.4336 0.82031-4.5898 1.4883-6.3242s1.4297-3.0508 2.2617-4.2383c0.83203-1.1914 1.7344-2.2617 2.3398-3.3164 0.60547-1.0547 0.91406-2.1055 0.92578-3.0078s-0.27734-1.6641-0.6875-2.3398c-0.41016-0.67969-0.94531-1.2734-1.5117-1.8086-0.5625-0.53516-1.1602-1.0078-1.6914-1.6914-0.53516-0.6875-1.0078-1.5938-1.2969-2.5078-0.28516-0.91406-0.39062-1.8398-0.42188-2.5352-0.03125-0.69922 0.011719-1.1719 0.03125-1.4062-0.003906-0.25781-0.003906-0.25781 0.48828-0.45313z"/></svg>